<svg width="31" height="30" viewBox="0 0 31 30" fill="none" xmlns="http://www.w3.org/2000/svg">
<path d="M10.6813 23.6628C10.6813 23.7802 10.5463 23.8741 10.3761 23.8741C10.1825 23.8917 10.0475 23.7978 10.0475 23.6628C10.0475 23.5454 10.1825 23.4515 10.3527 23.4515C10.5287 23.4339 10.6813 23.5278 10.6813 23.6628ZM8.856 23.3987C8.81491 23.5161 8.9323 23.6511 9.10837 23.6863C9.26097 23.745 9.43705 23.6863 9.47227 23.5689C9.50748 23.4515 9.39597 23.3165 9.21989 23.2637C9.06729 23.2226 8.89708 23.2813 8.856 23.3987ZM11.4502 23.2989C11.28 23.34 11.1626 23.4515 11.1802 23.5865C11.1978 23.7039 11.3504 23.7802 11.5265 23.7391C11.6967 23.698 11.8141 23.5865 11.7965 23.4691C11.7789 23.3576 11.6204 23.2813 11.4502 23.2989ZM15.3122 0.807861C7.17151 0.807861 0.944214 6.98821 0.944214 15.1289C0.944214 21.6379 5.04097 27.2079 10.8926 29.1682C11.6439 29.3032 11.908 28.8395 11.908 28.458C11.908 28.0941 11.8904 26.0868 11.8904 24.8543C11.8904 24.8543 7.78192 25.7347 6.91913 23.1052C6.91913 23.1052 6.25004 21.3973 5.28748 20.9571C5.28748 20.9571 3.94341 20.0356 5.38138 20.0532C5.38138 20.0532 6.84283 20.1706 7.64692 21.5675C8.9323 23.833 11.0863 23.1815 11.9256 22.7942C12.0606 21.8551 12.4421 21.2036 12.8647 20.8162C9.58379 20.4523 6.27351 19.9769 6.27351 14.3307C6.27351 12.7166 6.71958 11.9067 7.65866 10.8737C7.50606 10.4922 7.00717 8.9192 7.81126 6.88843C9.03794 6.50693 11.8611 8.47313 11.8611 8.47313C13.0349 8.14445 14.2968 7.97425 15.547 7.97425C16.7971 7.97425 18.059 8.14445 19.2329 8.47313C19.2329 8.47313 22.056 6.50106 23.2827 6.88843C24.0868 8.92507 23.5879 10.4922 23.4353 10.8737C24.3744 11.9125 24.9495 12.7225 24.9495 14.3307C24.9495 19.9945 21.4925 20.4465 18.2116 20.8162C18.7516 21.2799 19.2094 22.1603 19.2094 23.5396C19.2094 25.5175 19.1918 27.965 19.1918 28.4463C19.1918 28.8278 19.4618 29.2914 20.2072 29.1565C26.0764 27.2079 30.0558 21.6379 30.0558 15.1289C30.0558 6.98821 23.4529 0.807861 15.3122 0.807861ZM6.64915 21.051C6.57285 21.1097 6.59046 21.2447 6.69023 21.3562C6.78414 21.4501 6.91913 21.4912 6.99544 21.4149C7.07174 21.3562 7.05413 21.2212 6.95435 21.1097C6.86044 21.0158 6.72545 20.9747 6.64915 21.051ZM6.01527 20.5756C5.97418 20.6519 6.03287 20.7458 6.15026 20.8045C6.24417 20.8632 6.36155 20.8456 6.40264 20.7634C6.44372 20.6871 6.38503 20.5932 6.26764 20.5345C6.15026 20.4993 6.05635 20.5169 6.01527 20.5756ZM7.91691 22.665C7.823 22.7413 7.85822 22.9174 7.99321 23.0289C8.1282 23.1639 8.29841 23.1815 8.37471 23.0876C8.45101 23.0113 8.4158 22.8352 8.29841 22.7237C8.16929 22.5887 7.99321 22.5711 7.91691 22.665ZM7.24781 21.8023C7.15391 21.8609 7.15391 22.0135 7.24781 22.1485C7.34172 22.2835 7.50019 22.3422 7.57649 22.2835C7.6704 22.2072 7.6704 22.0546 7.57649 21.9196C7.49432 21.7846 7.34172 21.726 7.24781 21.8023Z" fill="white"/>
</svg>
