<svg width="32" height="32" viewBox="0 0 32 32" fill="none" xmlns="http://www.w3.org/2000/svg">
<path d="M15.8334 0.631439C7.34296 0.631439 0.464783 7.51061 0.464783 16C0.464783 24.4894 7.34395 31.3686 15.8334 31.3686C24.3238 31.3686 31.2019 24.4894 31.2019 16C31.2019 7.51061 24.3228 0.631439 15.8334 0.631439ZM23.3818 11.1604L20.8594 23.0468C20.673 23.8895 20.1713 24.0938 19.4712 23.6972L15.6291 20.8654L13.776 22.6501C13.5717 22.8544 13.3982 23.0279 13.0016 23.0279L13.2742 19.1174L20.3944 12.6844C20.7047 12.4117 20.3259 12.257 19.9164 12.5297L11.1167 18.0693L7.32412 16.8854C6.50017 16.6257 6.48133 16.0615 7.49764 15.6649L22.3149 9.95074C23.003 9.70286 23.6039 10.1183 23.3808 11.1594L23.3818 11.1604Z" fill="white"/>
</svg>
