<svg width="29" height="28" viewBox="0 0 29 28" fill="none" xmlns="http://www.w3.org/2000/svg">
<path d="M18.4263 0.125H9.90706C2.13244 0.125 0.291687 1.96575 0.291687 9.74037V18.2596C0.291687 26.0343 2.13244 27.875 9.90706 27.875H18.4263C26.2009 27.875 28.0417 26.0343 28.0417 18.2596V9.74037C28.0417 1.96575 26.1813 0.125 18.4263 0.125ZM22.6952 19.9235H20.6787C19.9156 19.9235 19.6797 19.3164 18.3084 17.9266C17.114 16.7704 16.5856 16.6143 16.2919 16.6143C15.8802 16.6143 15.7623 16.7322 15.7623 17.2999V19.121C15.7623 19.6113 15.6062 19.905 14.3135 19.905C12.1791 19.905 9.80878 18.6123 8.14494 16.2027C5.63819 12.6784 4.95137 10.0341 4.95137 9.486C4.95137 9.19231 5.06931 8.91828 5.63703 8.91828H7.65353C8.16228 8.91828 8.35884 9.153 8.55541 9.70106C9.55325 12.5801 11.2182 15.1065 11.9039 15.1065C12.1583 15.1065 12.2762 14.9886 12.2762 14.3434V11.3649C12.1976 9.99359 11.4726 9.87681 11.4726 9.38772C11.4726 9.15184 11.6692 8.91712 11.9814 8.91712H15.1541C15.5854 8.91712 15.7415 9.15184 15.7415 9.66059V13.6763C15.7415 14.1064 15.9381 14.2636 16.0548 14.2636C16.3092 14.2636 16.5254 14.1064 16.9949 13.6369C18.4448 12.0112 19.482 9.5045 19.482 9.5045C19.6196 9.21081 19.8543 8.93678 20.3642 8.93678H22.3807C22.9877 8.93678 23.1253 9.24897 22.9877 9.68025C22.7333 10.8562 20.2659 14.3411 20.2659 14.3411C20.0508 14.6938 19.9722 14.8498 20.2659 15.243C20.481 15.5367 21.1863 16.1437 21.6569 16.6917C22.5183 17.6711 23.1831 18.4932 23.36 19.0621C23.5566 19.6286 23.2617 19.9223 22.694 19.9223L22.6952 19.9235Z" fill="white"/>
</svg>
